PathFileType	4	(X/Y/Z)	D:\MotionData\Pi-Spi Study\20230118_AMCsubject1\Trimmed_right_abd_001_rotated.trc
DataRate	CameraRate	NumFrames	NumMarkers	Units	OrigDataRate	OrigDataStartFrame	OrigNumFrames
200.00	200.00	       11	35	mm	200.00	102	       271
Frame#	Time	C7			Sternum			r_AMC1			r_AMC2			r_AMC3			l_AMC1			l_AMC2			l_AMC3			PX			T8			r_humerous			r_elbow_medial			r_elbow_lateral			r_forearm			r_wrist_radius			r_wrist_ulna			r_MCP_1			r_MCP_3			l_humerous			l_elbow_medial			l_elbow_lateral			l_forearm			l_wrist_radius			l_wrist_ulna			l_MCP_1			l_MCP_3			r_ASIS			r_PSIS			l_ASIS			l_PSIS			r_IC			l_IC			TS			AI			AA			
		X1	Y1	Z1	X2	Y2	Z2	X3	Y3	Z3	X4	Y4	Z4	X5	Y5	Z5	X6	Y6	Z6	X7	Y7	Z7	X8	Y8	Z8	X9	Y9	Z9	X10	Y10	Z10	X11	Y11	Z11	X12	Y12	Z12	X13	Y13	Z13	X14	Y14	Z14	X15	Y15	Z15	X16	Y16	Z16	X17	Y17	Z17	X18	Y18	Z18	X19	Y19	Z19	X20	Y20	Z20	X21	Y21	Z21	X22	Y22	Z22	X23	Y23	Z23	X24	Y24	Z24	X25	Y25	Z25	X26	Y26	Z26	X27	Y27	Z27	X28	Y28	Z28	X29	Y29	Z29	X30	Y30	Z30	X31	Y31	Z31	X32	Y32	Z32	X33	Y33	Z33	X34	Y34	Z34	X35	Y35	Z35	

102	0.505	202.5079	1376.9023	-208.8244	328.6321	1301.2102	-197.68	200.7729	1322.1168	-42.1826	237.5316	1317.9617	-8.9986	260.917	1350.2714	-29.8134	228.6337	1327.3164	-373.7844	269.8362	1318.1146	-403.8771	293.2548	1351.4105	-370.1623	380.6156	1111.2766	-192.5325	149.1575	1193.6271	-220.4364	295.9614	1125.0033	-6.2519	210.8315	991.925	-24.9491	237.0411	998.0396	34.909	284.0159	839.2915	42.7159	328.1213	776.9066	18.8298	280.6598	770.2745	37.7894	340.1429	677.2842	31.7829	298.5195	690.0698	43.4135	322.217	1115.9766	-388.6526	222.0099	999.8109	-406.2539	261.054	993.8231	-446.2625	310.4704	841.4282	-440.0774	339.5674	770.4739	-407.2484	303.5768	766.4976	-434.6815	354.3698	693.4315	-416.7016	311.0302	691.4087	-440.4324	363.5966	907.2241	-66.5341	176.0697	922.6069	-157.9836	373.2355	895.1177	-328.9182	180.5382	917.0076	-261.6875	275.6856	966.6914	-41.341	283.4432	940.8408	-367.8449	112.2733	1305.3669	-94.6433	103.4506	1204.6436	-87.2891	188.9549	1301.1223	28.8322
103	0.51	202.521	1376.9045	-208.832	328.6748	1301.2261	-197.6573	200.784	1322.106	-42.1691	237.5561	1317.9495	-8.9611	260.9316	1350.2784	-29.7937	228.6837	1327.3262	-373.7491	269.8583	1318.1162	-403.8799	293.322	1351.0575	-371.6381	380.6844	1111.2826	-192.5655	149.1937	1193.6261	-220.4223	296.0289	1124.9846	-6.2716	210.8753	991.9301	-24.9368	237.0439	998.0798	35.011	284.1123	839.3516	42.8024	328.1725	776.9268	18.8574	280.6966	770.2003	37.7496	340.1928	677.3046	31.7791	298.5766	690.0623	43.4065	322.2399	1115.9779	-388.6337	222.0311	999.804	-406.2557	260.9612	993.6462	-446.2239	310.5341	841.4238	-440.0566	339.6202	770.4808	-407.231	303.6317	766.4883	-434.6817	354.3723	693.469	-416.6278	311.0601	691.4589	-440.4444	363.5953	907.231	-66.4982	176.1127	922.6083	-157.9772	373.2973	895.1034	-328.9012	180.5548	917.002	-261.6731	275.7132	966.7254	-41.328	283.6779	940.8136	-367.9033	112.2751	1305.3566	-94.6398	103.5309	1204.6653	-87.2821	188.9563	1301.1449	28.8856
104	0.515	202.5363	1376.9092	-208.7967	328.7269	1301.2321	-197.6499	200.7907	1322.1212	-42.1566	237.5667	1317.9402	-8.9471	260.9757	1350.2159	-29.7787	228.7146	1327.3274	-373.7462	269.9366	1318.0438	-403.8627	293.326	1351.1023	-371.6003	380.7387	1111.3273	-192.5125	149.2197	1193.6124	-220.3961	296.0369	1124.9944	-6.2436	210.905	991.9144	-24.9142	237.0909	998.0821	35.0389	284.0378	839.2651	42.7659	328.1938	776.9384	18.8609	280.6916	770.2754	37.8341	340.1538	677.228	31.7457	298.6633	690.0612	43.4488	322.2748	1116.0216	-388.6505	222.3467	1000.6813	-406.2098	261.0241	993.6386	-446.198	310.5631	841.4404	-440.0359	339.693	770.4462	-407.2101	303.6972	766.4825	-434.6432	354.4778	693.3869	-416.6248	311.0143	691.5273	-440.3644	363.6612	907.2374	-66.53	176.1291	922.6216	-157.9486	373.2935	895.0953	-328.8619	180.6046	916.9899	-261.6654	275.7319	966.7593	-41.3011	283.7634	940.8119	-367.7774	112.311	1305.3721	-94.6225	103.5236	1204.6315	-87.2264	188.9871	1301.1658	28.8705
105	0.52	202.5542	1376.9089	-208.796	328.741	1301.2352	-197.6229	200.8254	1322.119	-42.1227	237.6348	1317.922	-8.9293	261.0116	1350.2329	-29.7649	228.7483	1327.3254	-373.7345	269.9751	1318.0906	-403.8567	293.425	1351.0195	-371.579	380.7551	1111.3551	-192.4812	149.233	1193.6097	-220.3841	296.1215	1124.9533	-6.2609	210.9404	991.9284	-24.9148	237.1243	998.087	35.0579	283.9746	839.2253	42.6916	328.2472	776.8965	18.8316	280.7388	770.2711	37.7703	340.2636	677.2969	31.7965	298.7434	690.0171	43.4456	322.2623	1116.1691	-388.6514	222.0962	999.7888	-406.2407	261.072	993.6552	-446.1999	310.6267	841.4076	-440.0195	339.7247	770.4056	-407.1544	303.7785	766.4523	-434.6191	354.5362	693.416	-416.5733	311.0927	691.5152	-440.3959	363.6919	907.2454	-66.501	176.172	922.626	-157.9477	373.3512	895.0901	-328.856	180.6341	916.9921	-261.6618	275.8498	966.6924	-41.2971	283.7218	940.7855	-367.7945	112.3448	1305.3473	-94.5761	103.5583	1204.6409	-87.2146	189.0423	1301.1963	28.8902
106	0.525	202.5626	1376.9037	-208.7649	328.7737	1301.2587	-197.5847	200.8596	1322.1331	-42.0993	237.6354	1317.962	-8.9011	261.0658	1350.2094	-29.7732	228.8055	1327.3438	-373.7302	270.033	1318.0291	-403.8467	293.4716	1350.9714	-371.5364	380.6957	1111.3934	-192.4826	149.2639	1193.6092	-220.3721	296.1577	1124.9222	-6.2238	210.9737	991.9164	-24.9003	237.2183	998.0407	34.9714	284.221	839.3503	42.8631	328.2918	776.9019	18.8622	280.8095	770.245	37.7938	340.3077	677.2766	31.817	298.762	689.996	43.4683	322.3398	1116.0808	-388.5949	221.9961	999.318	-406.2626	261.1352	993.6506	-446.1562	310.6712	841.429	-440.031	339.7873	770.4058	-407.1393	303.8066	766.5151	-434.6128	354.553	693.4928	-416.6023	311.1356	691.4992	-440.3642	363.7197	907.2356	-66.4692	176.2109	922.6297	-157.9309	373.4073	895.0963	-328.7962	180.6547	917.0132	-261.6383	275.8635	966.6204	-41.2911	283.7375	940.8336	-367.7219	112.5781	1305.1913	-94.6952	103.6124	1204.6373	-87.2095	189.0331	1301.1808	28.9342
107	0.53	202.5924	1376.8949	-208.7473	328.823	1301.2599	-197.5693	200.8642	1322.1417	-42.0894	237.7468	1317.8702	-8.9222	260.9782	1350.3599	-29.7415	228.8162	1327.3351	-373.7062	269.8506	1318.0821	-403.9147	293.5272	1350.9592	-371.5039	380.7137	1111.3475	-192.4585	149.2998	1193.5918	-220.3462	296.1278	1125.046	-6.1996	210.9923	991.9115	-24.855	237.1981	998.0855	35.0886	284.2582	839.3419	42.8906	328.2964	776.9302	18.9259	280.8434	770.2413	37.7893	340.2722	677.2115	31.7688	298.7989	690.0223	43.4682	322.3919	1116.092	-388.587	222.2814	1000.1349	-406.2212	261.3223	993.8195	-446.1562	310.7584	841.3732	-440.0224	339.8599	770.3561	-407.093	303.9008	766.4642	-434.5932	354.6054	693.4541	-416.5855	311.1955	691.5148	-440.3815	363.76	907.2554	-66.4779	176.2242	922.6252	-157.9099	373.417	895.0987	-328.7849	180.7172	917.0157	-261.641	275.8704	966.686	-41.3005	283.796	940.7437	-367.7413	112.4211	1305.3342	-94.5103	103.6341	1204.6196	-87.1646	189.1096	1301.1631	28.9312
108	0.535	202.6178	1376.8927	-208.7512	328.8542	1301.2885	-197.5368	200.8923	1322.1326	-42.0832	237.7449	1317.9152	-8.9108	261.0399	1350.3156	-29.7362	228.8456	1327.3287	-373.7032	269.9345	1318.0207	-403.9137	293.6245	1350.9247	-371.4802	380.7352	1111.385	-192.4016	149.3126	1193.6071	-220.3432	296.1827	1124.9574	-6.172	211.0422	991.9042	-24.853	237.2636	998.0335	35.0028	284.2868	839.3341	42.8879	328.3063	776.9518	18.983	280.897	770.2327	37.8104	340.3041	677.1957	31.7842	298.7707	690.0436	43.47	322.4757	1115.9922	-388.5254	222.4938	1000.6674	-406.18	261.2572	993.6727	-446.1158	310.7543	841.4232	-439.9628	339.8905	770.4348	-407.1175	303.9303	766.4926	-434.5865	354.6422	693.4491	-416.5406	311.1952	691.5142	-440.3186	363.7646	907.2393	-66.469	176.2548	922.6171	-157.9023	373.4488	895.0943	-328.7584	180.7213	917.0089	-261.6273	275.956	966.6096	-41.2235	283.9253	940.7622	-367.7737	112.432	1305.3422	-94.4649	103.6372	1204.6316	-87.0706	189.1442	1301.1647	28.9636
109	0.54	202.637	1376.8799	-208.7386	328.8999	1301.2816	-197.5542	200.906	1322.1406	-42.0451	237.6987	1317.9818	-8.8662	261.0995	1350.2695	-29.707	228.8835	1327.314	-373.6793	269.8787	1318.0901	-403.8658	293.543	1351.4011	-370.0423	380.7866	1111.384	-192.4103	149.3737	1193.5945	-220.3251	296.209	1124.9626	-6.1861	211.0645	991.8946	-24.8119	237.2721	998.0718	35.1105	284.3274	839.3187	42.8851	328.3499	776.9155	18.9807	280.959	770.1924	37.807	340.3219	677.1977	31.8039	298.8154	690.079	43.5379	322.4971	1116.0017	-388.5217	222.242	999.791	-406.2158	261.2863	993.6784	-446.1143	310.8451	841.4092	-439.9571	339.9133	770.4268	-407.0748	303.9273	766.5483	-434.5371	354.7154	693.4407	-416.4972	311.3077	691.4674	-440.3337	363.7796	907.2299	-66.4233	176.2894	922.6287	-157.875	373.4817	895.0776	-328.7544	180.7576	917.0094	-261.5932	276.0008	966.6289	-41.2347	283.8838	940.9199	-367.6798	112.6415	1305.1523	-94.6288	103.7068	1204.5996	-87.1106	189.2202	1301.1669	28.9562
110	0.545	202.6562	1376.9016	-208.7227	328.9202	1301.2902	-197.5199	200.9317	1322.1185	-42.0491	237.7538	1317.948	-8.8122	261.1206	1350.2692	-29.6864	228.9183	1327.321	-373.6609	269.9269	1318.0999	-403.8347	293.8358	1351.3189	-370.475	380.8688	1111.3928	-192.396	149.3852	1193.5832	-220.3166	296.265	1124.9925	-6.1894	211.0908	991.9019	-24.8246	237.3114	998.0721	35.1234	284.3226	839.3621	42.9185	328.4058	776.9374	19.0031	280.9722	770.2433	37.816	340.3718	677.2203	31.7904	298.8959	690.0542	43.5127	322.5179	1116.1011	-388.526	222.2959	999.7875	-406.2058	261.3304	993.6569	-446.0906	310.8315	841.4156	-439.9056	339.9329	770.4418	-407.03	304.0052	766.4982	-434.5124	354.7696	693.4061	-416.4878	311.1696	691.6365	-440.2946	363.8818	907.254	-66.4398	176.3422	922.6464	-157.8581	373.5222	895.0998	-328.7234	180.7787	917.0081	-261.6095	275.949	966.7572	-41.2274	283.9851	940.8325	-367.7018	112.4666	1305.316	-94.4045	103.7402	1204.6077	-87.0361	189.2419	1301.1029	29.0315
111	0.55	202.6774	1376.8872	-208.6947	328.9402	1301.3127	-197.4966	200.9604	1322.1434	-42.0109	237.7712	1317.9383	-8.7708	261.1371	1350.2644	-29.6544	228.9369	1327.3077	-373.6461	269.9373	1318.0779	-403.821	293.8338	1351.3163	-370.4617	380.9097	1111.3975	-192.3432	149.4134	1193.5818	-220.2975	296.2952	1124.9871	-6.1742	211.1244	991.8851	-24.794	237.3738	998.0444	35.041	284.328	839.3994	42.9494	328.4293	776.9402	18.9948	280.9903	770.2208	37.8744	340.568	677.2264	31.9983	298.9111	690.0685	43.554	322.5658	1116.0958	-388.4816	222.3217	999.7734	-406.201	261.3842	993.6691	-446.0819	310.9031	841.4366	-439.9084	339.9877	770.4861	-407.0556	304.0676	766.4758	-434.5006	354.8146	693.4257	-416.4967	311.367	691.4901	-440.3217	363.8978	907.2397	-66.4464	176.3736	922.6535	-157.8659	373.5328	895.0967	-328.7171	180.8314	917.032	-261.5869	275.9869	966.7753	-41.2261	283.9898	940.7953	-367.6577	112.677	1305.1146	-94.5404	103.7363	1204.5895	-86.9805	189.2884	1301.0908	29.0325
112	0.555	202.6853	1376.8842	-208.6664	328.9889	1301.3461	-197.4742	200.9949	1322.1156	-41.9763	237.7769	1317.9648	-8.7833	261.409	1350.3973	-29.4114	228.9693	1327.3113	-373.6327	269.9951	1318.0341	-403.8162	293.82	1351.3367	-370.4044	380.9298	1111.4193	-192.3408	149.4195	1193.5702	-220.2627	296.2932	1124.9915	-6.1316	211.1406	991.885	-24.7736	237.3568	998.0754	35.1593	284.3965	839.3628	42.9243	328.4415	776.9598	19.0177	280.99	770.2266	37.9294	340.4416	677.2252	31.8569	298.903	690.0826	43.5842	322.5767	1116.1567	-388.4544	222.3945	999.847	-406.1746	261.4172	993.6511	-446.0546	310.938	841.3874	-439.9078	340.0606	770.5045	-407.0361	304.0884	766.4814	-434.5017	354.8599	693.428	-416.4491	311.3468	691.5671	-440.296	363.8755	907.2411	-66.3855	176.3829	922.6446	-157.8129	373.5944	895.0843	-328.6865	180.8529	917.0323	-261.5549	276.0051	966.7935	-41.2072	283.8713	940.832	-367.5935	112.6906	1305.1268	-94.5247	103.7784	1204.6012	-86.9632	189.3767	1301.2113	29.2331
